<svg xmlns="http://www.w3.org/2000/svg" width="50" height="50" viewBox="0 0 50 50" fill="none"><rect width="49.9766" height="49.9766" rx="9.99531" fill="url(#paint0_linear_7998_338)" style=""/><path d="M11.4766 24.9877C11.4766 30.336 14.5847 34.9579 19.0917 37.1482L12.6464 19.4888C11.8967 21.1692 11.4766 23.0288 11.4766 24.9877Z" fill="url(#paint1_radial_7998_338)" style=""/><path d="M34.1099 24.3059C34.1099 22.636 33.5101 21.4795 32.9956 20.5794C32.3107 19.4664 31.6687 18.5238 31.6687 17.4108C31.6687 16.1688 32.6108 15.0126 33.9377 15.0126C33.9976 15.0126 34.0544 15.02 34.1128 15.0234C31.7088 12.821 28.5061 11.4764 24.9884 11.4764C20.268 11.4764 16.115 13.8983 13.699 17.5667C14.016 17.5762 14.3147 17.5828 14.5685 17.5828C15.9818 17.5828 18.1695 17.4114 18.1695 17.4114C18.8979 17.3684 18.9837 18.4382 18.2561 18.5244C18.2561 18.5244 17.5242 18.6105 16.7097 18.6532L21.6301 33.2888L24.5871 24.4205L22.4819 18.6527C21.7543 18.61 21.065 18.5238 21.065 18.5238C20.3369 18.4812 20.4222 17.3679 21.1503 17.4108C21.1503 17.4108 23.3818 17.5823 24.7094 17.5823C26.1225 17.5823 28.3104 17.4108 28.3104 17.4108C29.0393 17.3679 29.1249 18.4377 28.3971 18.5238C28.3971 18.5238 27.6636 18.61 26.8506 18.6527L31.7335 33.1775L33.0812 28.6738C33.6654 26.8049 34.1099 25.4626 34.1099 24.3059Z" fill="url(#paint2_radial_7998_338)" style=""/><path d="M25.2255 26.1695L21.1715 37.9498C22.3819 38.3056 23.662 38.5002 24.9884 38.5002C26.5619 38.5002 28.0709 38.2282 29.4754 37.7343C29.4392 37.6765 29.4063 37.615 29.3793 37.5482L25.2255 26.1695Z" fill="url(#paint3_radial_7998_338)" style=""/><path d="M36.8447 18.5051C36.9028 18.9355 36.9357 19.3975 36.9357 19.8945C36.9357 21.2656 36.6796 22.8069 35.9083 24.7342L31.781 36.6671C35.798 34.3247 38.4999 29.9727 38.4999 24.988C38.5001 22.6388 37.9001 20.4298 36.8447 18.5051Z" fill="url(#paint4_radial_7998_338)" style=""/><defs><linearGradient id="paint0_linear_7998_338" x1="24.9883" y1="0" x2="24.9883" y2="49.9766" gradientUnits="userSpaceOnUse"><stop stop-color="#07190E" style="stop-color:#07190E;stop-color:color(display-p3 0.0275 0.0980 0.0549);stop-opacity:1;"/><stop offset="1" stop-color="#0A2113" style="stop-color:#0A2113;stop-color:color(display-p3 0.0384 0.1298 0.0739);stop-opacity:1;"/></linearGradient><radialGradient id="paint1_radial_7998_338" cx="0" cy="0" r="1" gradientTransform="matrix(2.5306 54.8809 -32.1239 8.39232 20.0031 -4.75039)" gradientUnits="userSpaceOnUse"><stop offset="0.206025" stop-color="#9FFF46" style="stop-color:#9FFF46;stop-color:color(display-p3 0.6235 1.0000 0.2745);stop-opacity:1;"/><stop offset="0.553343" stop-color="#F7D791" style="stop-color:#F7D791;stop-color:color(display-p3 0.9686 0.8431 0.5686);stop-opacity:1;"/><stop offset="0.754505" stop-color="#F5B5EC" style="stop-color:#F5B5EC;stop-color:color(display-p3 0.9608 0.7098 0.9255);stop-opacity:1;"/><stop offset="0.954298" stop-color="#6AA1FF" style="stop-color:#6AA1FF;stop-color:color(display-p3 0.4157 0.6314 1.0000);stop-opacity:1;"/></radialGradient><radialGradient id="paint2_radial_7998_338" cx="0" cy="0" r="1" gradientTransform="matrix(2.5306 54.8809 -32.1239 8.39232 20.0031 -4.75039)" gradientUnits="userSpaceOnUse"><stop offset="0.206025" stop-color="#9FFF46" style="stop-color:#9FFF46;stop-color:color(display-p3 0.6235 1.0000 0.2745);stop-opacity:1;"/><stop offset="0.553343" stop-color="#F7D791" style="stop-color:#F7D791;stop-color:color(display-p3 0.9686 0.8431 0.5686);stop-opacity:1;"/><stop offset="0.754505" stop-color="#F5B5EC" style="stop-color:#F5B5EC;stop-color:color(display-p3 0.9608 0.7098 0.9255);stop-opacity:1;"/><stop offset="0.954298" stop-color="#6AA1FF" style="stop-color:#6AA1FF;stop-color:color(display-p3 0.4157 0.6314 1.0000);stop-opacity:1;"/></radialGradient><radialGradient id="paint3_radial_7998_338" cx="0" cy="0" r="1" gradientTransform="matrix(2.5306 54.8809 -32.1239 8.39232 20.0031 -4.75039)" gradientUnits="userSpaceOnUse"><stop offset="0.206025" stop-color="#9FFF46" style="stop-color:#9FFF46;stop-color:color(display-p3 0.6235 1.0000 0.2745);stop-opacity:1;"/><stop offset="0.553343" stop-color="#F7D791" style="stop-color:#F7D791;stop-color:color(display-p3 0.9686 0.8431 0.5686);stop-opacity:1;"/><stop offset="0.754505" stop-color="#F5B5EC" style="stop-color:#F5B5EC;stop-color:color(display-p3 0.9608 0.7098 0.9255);stop-opacity:1;"/><stop offset="0.954298" stop-color="#6AA1FF" style="stop-color:#6AA1FF;stop-color:color(display-p3 0.4157 0.6314 1.0000);stop-opacity:1;"/></radialGradient><radialGradient id="paint4_radial_7998_338" cx="0" cy="0" r="1" gradientTransform="matrix(2.5306 54.8809 -32.1239 8.39232 20.0031 -4.75039)" gradientUnits="userSpaceOnUse"><stop offset="0.206025" stop-color="#9FFF46" style="stop-color:#9FFF46;stop-color:color(display-p3 0.6235 1.0000 0.2745);stop-opacity:1;"/><stop offset="0.553343" stop-color="#F7D791" style="stop-color:#F7D791;stop-color:color(display-p3 0.9686 0.8431 0.5686);stop-opacity:1;"/><stop offset="0.754505" stop-color="#F5B5EC" style="stop-color:#F5B5EC;stop-color:color(display-p3 0.9608 0.7098 0.9255);stop-opacity:1;"/><stop offset="0.954298" stop-color="#6AA1FF" style="stop-color:#6AA1FF;stop-color:color(display-p3 0.4157 0.6314 1.0000);stop-opacity:1;"/></radialGradient></defs></svg>